<?xml version="1.0" encoding="utf-8"?>
<!-- Generator: Adobe Illustrator 15.0.0, SVG Export Plug-In . SVG Version: 6.00 Build 0)  -->
<!DOCTYPE svg PUBLIC "-//W3C//DTD SVG 1.1//EN" "http://www.w3.org/Graphics/SVG/1.1/DTD/svg11.dtd">
<svg version="1.1" id="Layer_1" xmlns="http://www.w3.org/2000/svg" xmlns:xlink="http://www.w3.org/1999/xlink" x="0px" y="0px"
	 width="324.321px" height="445.509px" viewBox="0 0 324.321 445.509" enable-background="new 0 0 324.321 445.509"
	 xml:space="preserve">
<g>
	<g>
		<path fill="#A78462" stroke="#47292B" stroke-width="6" stroke-miterlimit="10" d="M199.297,315.097
			c-19.706,2.978-16.897,8.091-30.794,2.528c-18.483-7.939-64.806-39.251-64.806-39.251c3.66-12.199,23.795-50.313,25.15-54.588
			c1.355-4.276,8.124,5.277,22.984-0.358c14.859-5.636,18.679-8.939,30.954-15.09c13.442-6.732,42.896-26.353,57.608-40.792
			c14.714-14.441,15.722-30.495,29.777-48.029s31.334-31.35,27.753-2.771c-2.039,16.273-12.822,30.82-15.008,38.29
			c9.722-4.84,6.854,5.252,5.141,9.737c-2.936,7.683-15.801,29.867-23.716,37.125c21.161-6.92-10.658,36.318-18.14,41.678
			c11.292-3.155,6.333,7.489,3.275,11.993c-4.18,6.153-18.651,21.396-26.091,25.183C230.02,283.814,231.149,294.458,199.297,315.097
			z"/>
		<path fill="#472A2B" d="M1.062,275.403c4.889-26.961,18.432-45.175,29.107-55.816c-10.611-9.145-19.6-22.666-23.429-42.71
			C-3.784,121.789,31.668,95.8,49.457,92.401c10.306-1.969,19.435,1.724,26.77,4.687c2.494,1.011,6.049,2.447,8.079,2.81
			c1.755-1.085,4.53-3.731,6.476-5.59c5.727-5.459,12.851-12.256,23.156-14.226c17.788-3.397,60.329,7.691,70.854,62.779
			c2.591,13.561,1.878,25.21-0.86,35.177l-0.17,0.074c-3.107,9.965-8.982,20.002-16.496,28.145c0,0,20.822,14.043,29.842,51.262
			c14.275,58.904-6.701,92.208-11.551,100.963c-0.631,1.139,2.217,4.498,8.084,6.346c6.549,2.063,11.452,4.43,17.349,7.584
			c0.782,1.251,1.402,2.73,1.682,4.557c0.981,6.438-3.3,10.467-4.718,11.806c-3.552,3.35-7.476,5.481-11.661,6.439
			c-1.709,8.831-8.951,22.665-19.688,24.863c-0.891,2.202-2.216,4.748-4.147,7.724c-6.096,9.411-12.222,14.763-18.206,15.906
			c-1.387,0.265-2.788,0.286-4.174,0.135c-1.233,0.651-2.544,1.148-3.935,1.414c-5.982,1.143-13.65-1.569-22.785-8.074
			c-2.893-2.055-5.064-3.933-6.703-5.651c-10.794,1.915-22.624-8.271-27.469-15.854c-4.24,0.65-8.68,0.117-13.235-1.695
			c-1.792-0.714-7.256-2.887-8.716-9.228c-0.411-1.783-0.381-3.375-0.125-4.816c-9.171-1.501-19.058-8.335-29.467-20.419
			C15.433,353.743-4.933,308.497,1.062,275.403z"/>
		<path fill="#A68462" d="M174.764,373.571c2.05-2.376,4.108-4.986,6.162-7.847c18.779,14.72,22.414,11.24,18.959,14.495
			c-2.191,2.067-4.383,3.233-6.564,3.65c-3.704,0.707-7.395-0.739-11.062-3.6C178.483,377.316,176.359,375.034,174.764,373.571z"/>
		<path fill="#A68462" d="M171.739,376.925c0.652,0.508,1.359,1.075,2.131,1.741c5.744,4.965,10.723,8.913,11.079,13.061
			c0.279,3.275-5.554,15.863-10.745,16.854c-1.387,0.266-2.727-0.296-3.893-2.088c-6.329-9.723-8.847-15.613-10.554-18.916
			C163.497,384.845,167.561,381.36,171.739,376.925z"/>
		<path fill="#A68462" d="M92.556,382.669c2.966,1.903,5.847,3.564,8.629,5.015c-0.938,1.949-2.072,4.845-4.466,8.929
			c-2.351,4.01-5.247,6.715-8.952,7.423c-2.185,0.418-4.651,0.142-7.451-0.973C75.913,401.313,80.556,403.198,92.556,382.669z"/>
		<path fill="#A68462" d="M105.229,389.684c5.529,2.58,10.6,4.313,15.096,5.473c-0.364,3.701-0.539,10.102-2.832,21.428
			c-0.425,2.096-1.463,3.111-2.851,3.376c-5.191,0.992-15.254-8.559-16.199-11.707c-1.197-3.986,1.973-9.491,5.482-16.225
			C104.384,391.149,104.821,390.38,105.229,389.684z"/>
		<path fill="#A68462" d="M12.633,277.5c5.268-29.052,21.646-46.595,31.667-54.898c1.605,0.906,3.223,1.725,4.846,2.477
			c-5.581,8.527-15.605,28.215-12.583,56.299c0.204,1.888,0.44,3.815,0.711,5.78c0.191,1.398,0.425,2.84,0.655,4.272
			c0.094,0.562,0.162,1.108,0.261,1.679c0.33,1.943,0.702,3.922,1.108,5.916c0.012,0.062,0.022,0.125,0.036,0.187
			c5.498,26.896,18.25,57.694,46.52,78.748c0.014,0.009,0.025,0.021,0.039,0.03c-1.175,5.557-4.416,8.932-10.432,10.081
			c-1.276,0.244-2.68,0.391-4.212,0.438C49.432,389.182,4.862,320.384,12.633,277.5z"/>
		<path fill="#A68462" d="M148.324,416.335c-1.331-6.772-2.798-14.239-3.9-20.332c2.703-0.978,6.618-2.716,11.248-5.648
			c3.234,5.891,9.104,14.918,10.748,21.872c0.882,3.73-9.64,19.025-14.377,19.931c-0.293,0.056-0.556,0.057-0.793,0.021
			c-0.001-0.512-0.051-1.034-0.152-1.564C150.45,427.222,149.128,420.415,148.324,416.335z"/>
		<path fill="#A68462" d="M137.695,397.303c1.219,6.068,2.605,13.544,3.863,20.325c0.757,4.089,2.039,10.903,2.687,14.295
			c0.102,0.529,0.25,1.034,0.434,1.51c-0.209,0.121-0.451,0.218-0.745,0.273c-4.74,0.906-20.155-9.434-20.711-13.228
			c-1.033-7.061,1.086-17.588,1.928-24.255C130.518,397.224,134.795,397.394,137.695,397.303z"/>
		<path fill="#A68462" d="M83.606,367.988c-0.05-0.05-0.106-0.097-0.158-0.141c-0.263-0.232-0.523-0.463-0.788-0.69
			c-4.792-4.276-9.077-8.91-12.896-13.838c0-0.002-0.005-0.007-0.007-0.009c-0.121-0.153-0.232-0.308-0.351-0.46
			c-1.508-1.969-2.942-3.976-4.308-6.027c-0.332-0.489-0.667-0.976-0.986-1.472c-0.006-0.007-0.009-0.015-0.015-0.023
			c-1.783-2.776-3.434-5.629-4.97-8.537c-0.01-0.018-0.019-0.034-0.029-0.052c-0.34-0.653-0.67-1.306-1.001-1.957
			c-0.649-1.285-1.287-2.577-1.891-3.884c-0.006-0.007-0.01-0.018-0.014-0.027c-0.209-0.451-0.409-0.914-0.613-1.368
			c-0.687-1.533-1.358-3.069-1.987-4.623c0,0,0-0.004-0.001-0.006c-0.126-0.31-0.238-0.623-0.362-0.933
			c-0.677-1.71-1.333-3.428-1.943-5.165c-0.002-0.01-0.005-0.013-0.006-0.021c-0.124-0.356-0.238-0.714-0.356-1.073
			c-1.555-4.535-2.877-9.138-3.999-13.783c-0.089-0.381-0.185-0.757-0.275-1.139c-0.005-0.027-0.015-0.055-0.02-0.08
			c-0.217-0.925-0.442-1.848-0.644-2.774c-0.001-0.006-0.002-0.012-0.003-0.017c-0.09-0.421-0.167-0.842-0.252-1.265
			c-0.794-3.825-1.48-7.669-2.025-11.51c-0.002-0.008-0.002-0.012-0.003-0.018c-0.304-2.138-0.57-4.271-0.8-6.403
			c-2.957-27.478,7.52-46.216,12.266-53.136c10.521,3.8,20.602,4.845,27.253,5.044c10.506,0.315,20.471-1.242,25.472-2.198
			c0.509-0.097,0.941-0.184,1.295-0.257c0.356-0.063,0.793-0.142,1.301-0.239c5.002-0.955,14.837-3.18,24.486-7.346
			c6.109-2.637,15.097-7.325,23.477-14.735c6.965,4.684,23.612,18.242,30.988,44.872c1.442,5.211,2.66,10.54,3.652,15.926
			c0.195,1.021,0.39,2.039,0.563,3.064c0.001,0.006,0.001,0.008,0.002,0.014c0.518,3.106,0.929,6.235,1.271,9.375
			c0,0.021,0.004,0.041,0.004,0.064c0.128,1.167,0.253,2.341,0.351,3.511c0.001,0.006-0.002,0.012-0.001,0.014
			c0.089,1.027,0.149,2.054,0.215,3.081c0,0.002,0.001,0.006,0.002,0.012c0.059,0.899,0.106,1.805,0.149,2.71
			c0.057,1.295,0.098,2.592,0.121,3.89c-0.001,0.004,0,0.01,0.001,0.014c0.011,0.674,0.011,1.349,0.011,2.024
			c0.005,1.526-0.006,3.051-0.054,4.578c-0.034,1.09-0.081,2.181-0.142,3.27c-0.002,0.011-0.002,0.021,0,0.03
			c-0.064,1.096-0.14,2.191-0.23,3.289c-0.089,1.066-0.194,2.135-0.309,3.202c-0.003,0.009-0.006,0.021-0.004,0.033
			c-0.225,2.059-0.51,4.116-0.844,6.166c-0.015,0.093-0.027,0.19-0.043,0.287v0.002c-0.186,1.121-0.372,2.234-0.589,3.35
			c-0.004,0.009-0.003,0.014-0.008,0.022c-0.113,0.583-0.246,1.165-0.376,1.745c-0.479,2.263-1.035,4.514-1.658,6.755
			c-0.094,0.314-0.178,0.633-0.269,0.95c-0.003,0.005-0.005,0.013-0.008,0.02c-0.455,1.574-0.943,3.141-1.474,4.702
			c-0.193,0.527-0.373,1.057-0.563,1.589c-0.006,0.021-0.016,0.043-0.025,0.064c-0.398,1.109-0.777,2.22-1.216,3.318
			c-0.003,0.004-0.003,0.004-0.004,0.009c-0.118,0.299-0.255,0.593-0.385,0.893c-2.433,5.938-5.418,11.753-9.108,17.375
			c-15.137,23.039-30.909,30.231-37.181,32.301l-1.414,0.436l-1.474,0.116c-6.593,0.389-23.905-0.483-46.468-16.32
			C88.986,372.51,86.25,370.281,83.606,367.988z"/>
		<path fill="#A68462" d="M132.645,217.165c-9.334,4.028-19.007,6.157-23.258,6.969c-0.521,0.1-0.954,0.179-1.301,0.239
			c-0.343,0.071-0.779,0.158-1.295,0.257c-4.251,0.813-14.029,2.4-24.19,2.097c-13.544-0.407-55.304-4.896-64.313-52.056
			c-9.01-47.161,20.383-68.238,33.377-70.721c12.577-2.403,24.945,8.756,34.89,7.717c9.629-2.701,17.012-17.633,29.59-20.035
			c12.992-2.482,48.087,6.275,57.097,53.436C182.25,192.229,145.084,211.794,132.645,217.165z"/>
		<g>
			<path fill="#CFAB7A" d="M61.997,125.545c10.241-1.956,19.88,4.866,27.948,3.875c7.868-2.054,14.308-11.947,24.554-13.905
				c10.574-2.021,38.656,2.521,44.429,32.738c5.773,30.22-24.886,44.068-35.112,47.939c-8.595,3.254-17.466,4.979-20.072,5.447
				c-2.601,0.526-11.477,2.192-20.672,2.336c-10.928,0.171-44.534-1.4-50.307-31.619C26.991,142.139,51.417,127.566,61.997,125.545z
				"/>
		</g>
		<g>
			<g>
				<defs>
					<path id="SVGID_1_" d="M132.645,217.165c-9.334,4.028-19.007,6.157-23.258,6.969c-0.521,0.1-0.954,0.179-1.301,0.239
						c-0.343,0.071-0.779,0.158-1.295,0.257c-4.251,0.813-14.029,2.4-24.19,2.097c-13.544-0.407-55.304-4.896-64.313-52.056
						c-9.01-47.161,20.383-68.238,33.377-70.721c12.577-2.403,24.945,8.756,34.89,7.717c9.629-2.701,17.012-17.633,29.59-20.035
						c12.992-2.482,48.087,6.275,57.097,53.436C182.25,192.229,145.084,211.794,132.645,217.165z"/>
				</defs>
				<clipPath id="SVGID_2_">
					<use xlink:href="#SVGID_1_"  overflow="visible"/>
				</clipPath>
				<g clip-path="url(#SVGID_2_)">
					<path fill="#7E543A" d="M120.509,184.32c0,0-1.488,41.429-12.078,43.452c-10.584,2.022-26.658-36.052-26.658-36.052
						L120.509,184.32z"/>
				</g>
			</g>
			<path fill="#472A2B" d="M81.772,191.721c1.55,8.111,14.086,27.136,24.866,25.076c10.572-2.02,15.377-24.594,13.87-32.477
				c-2.039-10.678-12.386-17.707-23.068-15.667C86.761,170.694,79.732,181.043,81.772,191.721z M90.073,190.135
				c-1.166-6.103,2.853-12.017,8.953-13.182c6.103-1.166,12.016,2.851,13.182,8.953c1.372,7.181-4.468,22.076-7.155,22.59
				C101.745,209.128,91.46,197.391,90.073,190.135z"/>
			<path fill="#DF7A1C" d="M98.71,175.294c7.03-1.344,13.817,3.268,15.16,10.295c1.343,7.029-4.072,23.723-8.5,24.568
				c-4.979,0.951-15.615-12.676-16.958-19.705C87.069,183.425,91.683,176.636,98.71,175.294z"/>
			<g>
				<defs>
					<path id="SVGID_3_" d="M113.87,185.589c1.343,7.029-4.072,23.723-8.5,24.568c-4.979,0.951-15.615-12.676-16.958-19.705
						c-1.343-7.027,3.271-13.816,10.298-15.158C105.74,173.95,112.527,178.562,113.87,185.589z"/>
				</defs>
				<clipPath id="SVGID_4_">
					<use xlink:href="#SVGID_3_"  overflow="visible"/>
				</clipPath>
				<path clip-path="url(#SVGID_4_)" fill="#B15C12" d="M113.87,185.589c0,0-5.175,19.056-9.742,19.928
					c-4.564,0.872-16.021-16.297-16.021-16.297s6.656,25.831,17.447,23.77C116.349,210.927,113.87,185.589,113.87,185.589z"/>
			</g>
		</g>
		<g>
			<path fill="#CFAB7A" d="M132.998,355.011c-12.623,2.278-56.915-19.035-64.498-58.728c-7.459-39.04,35.809-50.161,37.624-50.602
				l11.641-2.224c1.85-0.26,46.172-5.872,53.63,33.168c7.583,39.692-25.732,75.832-38.307,78.367L132.998,355.011z"/>
		</g>
		<path fill="#EEB480" d="M95.842,194.485c-2.016-2.777-5.064-6.662-5.737-7.415c-0.675-0.752,2.255-6.358,2.657-5.431
			C101.24,201.217,101.306,202.018,95.842,194.485z"/>
		<g>
			<circle fill="#FFFFFF" stroke="#472A2B" stroke-width="7.038" stroke-miterlimit="10" cx="127.038" cy="145.895" r="28.549"/>
			<circle fill="#FFFFFF" stroke="#472A2B" stroke-width="7.038" stroke-miterlimit="10" cx="61.541" cy="158.408" r="28.549"/>
		</g>
		<g>
			<defs>
				<path id="SVGID_5_" d="M174.641,373.595c2.05-2.376,4.108-4.986,6.163-7.847c18.779,14.72,22.413,11.24,18.959,14.495
					c-2.192,2.067-4.384,3.233-6.564,3.65c-3.705,0.707-7.396-0.739-11.062-3.6C178.361,377.341,176.236,375.058,174.641,373.595z
					 M216.587,298.424c1.668-1.041-9.854-67.169-9.854-67.169c-10.184-13.246-8.684-25.257-15.759-24.487
					c-10.307,1.12-18.944-2.923-24.369-7.532c-1.159,1.435-2.359,2.792-3.591,4.089c8.918,5.469,25.274,22.027,32.446,47.696
					c0.511,1.829,1.001,3.708,1.472,5.635c0.323,1.317,0.622,2.685,0.927,4.046c0.135,0.614,0.285,1.204,0.419,1.829
					c0.391,1.848,0.756,3.741,1.099,5.658c0.028,0.149,0.062,0.292,0.088,0.438c1.767,9.948,2.989,23.547,2.438,34.427
					C201.902,303.054,214.918,299.464,216.587,298.424z M159.636,387.601c1.706,3.303,4.224,9.193,10.553,18.916
					c1.166,1.792,2.506,2.354,3.893,2.088c5.191-0.991,11.025-13.579,10.745-16.854c-0.356-4.147-5.335-8.096-11.079-13.061
					c-0.771-0.666-1.479-1.233-2.13-1.741C167.438,381.384,163.374,384.868,159.636,387.601z M80.192,403.086
					c2.8,1.114,5.267,1.391,7.451,0.973c3.705-0.708,6.603-3.413,8.952-7.423c2.394-4.084,3.528-6.979,4.467-8.929
					c-2.783-1.45-5.663-3.111-8.63-5.015C80.433,403.222,75.79,401.337,80.192,403.086z M103.803,392.052
					c-3.51,6.733-6.68,12.238-5.482,16.225c0.945,3.148,11.009,12.699,16.2,11.707c1.387-0.265,2.426-1.28,2.851-3.376
					c2.292-11.326,2.467-17.727,2.832-21.428c-4.497-1.159-9.566-2.893-15.097-5.473
					C104.699,390.403,104.262,391.173,103.803,392.052z M71.126,388.531c1.532-0.047,2.937-0.193,4.212-0.437
					c6.017-1.15,9.257-4.525,10.433-10.082c-0.015-0.01-0.026-0.021-0.04-0.03c-28.27-21.054-41.021-51.853-46.52-78.748
					c-0.014-0.061-0.023-0.125-0.035-0.187c-0.407-1.994-0.779-3.973-1.108-5.916c-0.1-0.57-0.168-1.117-0.262-1.679
					c-0.229-1.433-0.463-2.874-0.655-4.272c-0.27-1.965-0.507-3.893-0.71-5.78c-3.023-28.084,7.002-47.771,12.582-56.299
					c-1.623-0.752-3.24-1.57-4.846-2.477c-10.021,8.304-26.399,25.847-31.667,54.898C4.739,320.407,49.309,389.205,71.126,388.531z
					 M150.976,430.637c0.101,0.53,0.151,1.053,0.151,1.564c0.237,0.036,0.5,0.035,0.793-0.021
					c4.737-0.905,15.259-16.2,14.377-19.931c-1.645-6.954-7.513-15.981-10.748-21.872c-4.63,2.933-8.545,4.671-11.247,5.648
					c1.102,6.093,2.568,13.56,3.9,20.332C149.005,420.438,150.327,427.245,150.976,430.637z M125.027,396.247
					c-0.842,6.667-2.96,17.194-1.928,24.255c0.556,3.794,15.971,14.134,20.712,13.228c0.293-0.056,0.535-0.152,0.745-0.273
					c-0.185-0.476-0.333-0.98-0.434-1.51c-0.648-3.392-1.931-10.206-2.688-14.295c-1.258-6.781-2.645-14.257-3.863-20.325
					C134.673,397.417,130.395,397.247,125.027,396.247z M91.813,374.603c22.563,15.837,39.875,16.709,46.469,16.32l1.473-0.116
					l1.414-0.436c6.271-2.069,22.044-9.262,37.182-32.301c3.689-5.622,6.676-11.437,9.107-17.375c0.13-0.3,0.267-0.594,0.385-0.893
					c0.001-0.005,0.001-0.005,0.004-0.009c0.438-1.099,0.817-2.208,1.216-3.318c0.01-0.021,0.02-0.044,0.025-0.064
					c0.19-0.532,0.37-1.062,0.563-1.589c0.531-1.562,1.019-3.128,1.474-4.702c0.003-0.007,0.005-0.015,0.009-0.02
					c0.09-0.317,0.175-0.636,0.268-0.95c0.624-2.241,1.18-4.492,1.658-6.755c0.13-0.58,0.264-1.162,0.377-1.744
					c0.004-0.01,0.003-0.015,0.007-0.023c0.217-1.115,0.403-2.229,0.589-3.35v-0.002c0.016-0.097,0.028-0.194,0.043-0.287
					c0.334-2.05,0.619-4.107,0.844-6.166c-0.002-0.012,0.002-0.024,0.004-0.033c0.114-1.067,0.221-2.136,0.309-3.202
					c0.091-1.097,0.166-2.193,0.23-3.289c-0.002-0.01-0.001-0.02,0.001-0.03c0.06-1.089,0.106-2.18,0.141-3.27
					c0.048-1.527,0.06-3.052,0.054-4.578c0-0.676,0.001-1.351-0.011-2.024c-0.001-0.004-0.002-0.01-0.001-0.014
					c-0.023-1.298-0.063-2.595-0.12-3.89c-0.044-0.905-0.092-1.811-0.15-2.71c-0.001-0.006-0.002-0.01-0.002-0.012
					c-0.065-1.027-0.126-2.054-0.215-3.081c0-0.002,0.003-0.008,0.001-0.014c-0.098-1.17-0.223-2.344-0.35-3.511
					c-0.001-0.023-0.005-0.043-0.005-0.064c-0.342-3.14-0.752-6.269-1.271-9.375c-0.001-0.006-0.001-0.008-0.002-0.014
					c-0.172-1.025-0.367-2.044-0.562-3.064c-0.993-5.386-2.21-10.715-3.653-15.926c-7.376-26.63-24.022-40.188-30.988-44.872
					c-8.379,7.41-17.366,12.099-23.477,14.735c-9.649,4.166-19.484,6.391-24.485,7.346c-0.509,0.098-0.945,0.177-1.301,0.239
					c-0.354,0.073-0.787,0.16-1.295,0.257c-5.002,0.956-14.967,2.514-25.472,2.198c-6.652-0.199-16.732-1.244-27.253-5.044
					c-4.747,6.92-15.224,25.658-12.267,53.136c0.23,2.132,0.497,4.266,0.8,6.403c0.001,0.006,0.002,0.01,0.003,0.018
					c0.545,3.841,1.231,7.685,2.026,11.51c0.085,0.423,0.161,0.844,0.251,1.265c0.001,0.006,0.002,0.011,0.004,0.017
					c0.2,0.927,0.427,1.85,0.643,2.774c0.005,0.025,0.015,0.053,0.02,0.08c0.091,0.382,0.187,0.758,0.275,1.139
					c1.122,4.646,2.445,9.248,3.999,13.783c0.118,0.359,0.232,0.717,0.356,1.073c0.002,0.008,0.004,0.011,0.006,0.021
					c0.61,1.737,1.267,3.455,1.943,5.165c0.125,0.31,0.236,0.623,0.363,0.933c0,0.002,0.001,0.006,0.001,0.006
					c0.629,1.554,1.3,3.09,1.986,4.623c0.204,0.454,0.404,0.917,0.613,1.368c0.004,0.01,0.008,0.021,0.014,0.027
					c0.604,1.307,1.242,2.599,1.892,3.884c0.331,0.651,0.66,1.304,1,1.957c0.011,0.018,0.021,0.034,0.029,0.052
					c1.536,2.908,3.187,5.761,4.97,8.537c0.006,0.009,0.009,0.017,0.015,0.023c0.319,0.496,0.654,0.982,0.987,1.472
					c1.364,2.052,2.799,4.059,4.307,6.027c0.119,0.152,0.229,0.307,0.351,0.46c0.002,0.002,0.007,0.007,0.008,0.009
					c3.818,4.928,8.104,9.562,12.896,13.838c0.265,0.228,0.525,0.458,0.788,0.69c0.053,0.044,0.109,0.091,0.158,0.141
					C86.127,370.305,88.863,372.533,91.813,374.603z M173.118,145.091c-9.011-47.16-44.105-55.918-57.097-53.436
					c-12.579,2.402-19.961,17.334-29.591,20.035c-9.944,1.039-22.313-10.12-34.89-7.717c-12.993,2.482-42.387,23.56-33.377,70.721
					c9.01,47.16,50.77,51.648,64.313,52.056c10.161,0.304,19.939-1.284,24.19-2.097c0.517-0.099,0.953-0.186,1.295-0.257
					c0.347-0.061,0.78-0.14,1.301-0.239c4.251-0.812,13.924-2.94,23.258-6.969C144.961,211.817,182.128,192.252,173.118,145.091z"/>
			</defs>
			<clipPath id="SVGID_6_">
				<use xlink:href="#SVGID_5_"  overflow="visible"/>
			</clipPath>
			<g clip-path="url(#SVGID_6_)">
				<path fill="#7E543A" d="M194.923,310.79c0,0-18.216,63.556-55.936,70.762c-43.123,8.238-79.982-44.737-79.982-44.737
					l1.216,8.403l23.872,28.364l25.538,13.578l17.055,5.72c0,0,8.248,1.417,13.543,0.405c5.297-1.012,19.27-6.175,25.591-14.863
					c6.322-8.69,20.794-26.923,23.932-34.005c3.137-7.082,6.031-31.082,6.031-31.082L194.923,310.79z"/>
			</g>
			<path clip-path="url(#SVGID_6_)" fill="#7E543A" d="M91.296,380.936l12.387,5.116l10.876,5.03l26.024,4.06l22.697-13.367
				l8.256-8.686l9.626-9.322l5.643,6.031l-0.547,0.418c0,0-2.976,0.066-6.364,3.209c-3.393,3.144-1.994,7.861-1.994,7.861
				s-5.578,0.817-10.801,4.81c-5.223,3.988-6.122,8.089-6.122,8.089l-2.208,1.172c0,0-3.853-0.576-7.829,1.12
				c-3.979,1.694-5.782,5.968-5.782,5.968l-2.68,0.657l0.008,0.04l-0.365,0.048l-0.356,0.091l-0.008-0.041l-2.733,0.377
				c0,0-3.251-3.308-7.572-3.417c-4.324-0.11-7.691,1.846-7.691,1.846l-2.484-0.275c0,0-2.349-3.48-8.673-5.263
				c-6.328-1.785-11.813-0.489-11.813-0.489s-0.438-4.901-4.751-6.572c-4.309-1.673-7.101-0.636-7.101-0.636l-0.662-0.188
				L91.296,380.936z"/>
			<g clip-path="url(#SVGID_6_)">
				<g>
					<path fill="#7E543A" d="M192.565,243.622c0,0,14.798,33.086,12.232,74.477c-2.566,41.396-14.659,51.188-14.659,51.188
						l-8.28-9.393c0,0,17.538-28.298,15.979-70.392C196.278,247.402,192.565,243.622,192.565,243.622z"/>
				</g>
				<g>
					<path fill="#7E543A" d="M36.407,273.455c0,0-1.561,36.211,16.085,73.741c17.646,37.535,32.495,42.178,32.495,42.178
						l4.235-11.783c0,0-26.736-19.839-40.802-59.543C34.348,278.338,36.407,273.455,36.407,273.455z"/>
				</g>
			</g>
			<path clip-path="url(#SVGID_6_)" fill="#7E543A" d="M96.485,230.308c-7.178-0.625-13.016,2.095-13.016,2.095
				s-4.757-2.688-19.069,1.541c-14.319,4.231-21.482,11.587-21.482,11.587l6.419-13.946l5.293-6.997l21.188,5.179l33.136-2.143
				l28.509-9.386l20.492-14.138l7.879,5.228l10.53,10.208c0,0-9.893-4.344-24.76-2.999c-14.87,1.344-17.199,6.135-17.199,6.135
				s-6.519-0.855-12.962,2.367L96.485,230.308z"/>
			<g clip-path="url(#SVGID_6_)">
				<path fill="#7E543A" d="M40.674,244.211c0,0-4.582,2.122-7.737-0.02c-3.15-2.14-3.013-6.654-3.013-6.654l-1.543-5.441
					l12.313-12.579l10.293,4.271l-1.956,9.352L40.674,244.211z"/>
			</g>
			<path clip-path="url(#SVGID_6_)" fill="#7E543A" d="M110.432,235.362"/>
		</g>
		<g>
			<g>
				<g>
					<path fill="#B15C12" d="M188.77,403.137c1.074-0.205,3.735-0.982,5.219-3.753c1.578-2.956,1.252-7.121-0.972-12.38
						c-5.543-13.112-17.409-15.638-17.912-15.738c-0.257-0.053-0.517-0.053-0.769-0.005c-0.368,0.07-0.715,0.244-0.994,0.509
						l-9.063,8.518c-0.54,0.505-0.755,1.268-0.561,1.98c0.192,0.713,0.764,1.262,1.483,1.427c2.757,0.638,10.222,3.305,11.601,7.919
						c2.238,7.502,8.516,11.558,10.7,11.638c0.358,0.014,0.808-0.027,1.265-0.114H188.77z"/>
					<path fill="#472A2B" d="M174.712,373.226c0,0,11.268,2.268,16.463,14.556c4.474,10.583-0.538,12.962-2.781,13.391
						c-0.362,0.069-0.651,0.087-0.819,0.081c-1.239-0.046-6.836-3.446-8.856-10.213s-13.068-9.297-13.068-9.297L174.712,373.226
						 M173.961,369.297c-0.736,0.141-1.428,0.487-1.989,1.014l-9.063,8.519c-1.077,1.013-1.509,2.535-1.121,3.962
						c0.387,1.426,1.526,2.522,2.967,2.852c2.863,0.656,9.108,3.117,10.131,6.541c2.321,7.783,8.979,12.938,12.546,13.067
						c0.511,0.018,1.101-0.033,1.713-0.15c2.868-0.548,5.277-2.288,6.606-4.775c1.878-3.513,1.578-8.257-0.893-14.101
						c-5.95-14.075-18.815-16.811-19.359-16.92C174.984,369.2,174.462,369.201,173.961,369.297L173.961,369.297z"/>
				</g>
				<g>
					<path fill="#B15C12" d="M176.455,410.017c3.133-0.599,6.945-3.237,7.312-12.404c0.666-16.602-14.345-21.37-14.497-21.416
						c-0.316-0.097-0.646-0.111-0.958-0.052c-0.37,0.07-0.721,0.247-1.005,0.516l-8.469,8.066c-0.5,0.476-0.718,1.176-0.581,1.85
						c0.139,0.675,0.614,1.23,1.26,1.473c0.078,0.029,8.168,3.226,7.59,7.995c-0.871,7.182,2.896,13.382,5.764,13.9
						C173.532,410.068,174.87,410.319,176.455,410.017L176.455,410.017z"/>
					<path fill="#472A2B" d="M168.687,378.108c0,0,13.692,4.173,13.083,19.424c-0.317,7.935-3.302,10.063-5.689,10.52
						c-1.309,0.25-2.438-0.001-2.854-0.076c-1.427-0.257-4.921-5.201-4.135-11.69c0.788-6.493-8.875-10.109-8.875-10.109
						L168.687,378.108 M167.937,374.18c-0.742,0.142-1.443,0.494-2.008,1.034l-8.471,8.066c-0.995,0.945-1.427,2.339-1.157,3.686
						c0.271,1.346,1.22,2.463,2.503,2.951c2.104,0.806,6.617,3.403,6.316,5.887c-0.97,8.01,3.252,15.361,7.395,16.109l0.076,0.014
						c0.624,0.117,2.282,0.429,4.239,0.055c3.148-0.602,8.495-3.258,8.937-14.29c0.58-14.504-10.156-21.655-15.914-23.408
						C169.22,374.09,168.563,374.06,167.937,374.18L167.937,374.18z"/>
				</g>
				<g>
					<path fill="#B15C12" d="M164.271,414.985c3.553-0.679,6.321-3.726,8.229-9.057c4.39-12.259-8.218-23.421-8.758-23.891
						c-0.475-0.414-1.101-0.567-1.689-0.455c-0.293,0.057-0.576,0.178-0.828,0.367l-7.836,5.916
						c-0.513,0.386-0.808,0.995-0.795,1.637c0.011,0.641,0.332,1.237,0.858,1.602c0.054,0.04,5.792,4.129,3.78,8.129
						c-3.051,6.063-2.052,12.645,0.877,14.479c1.122,0.701,3.412,1.799,6.159,1.273H164.271z"/>
					<path fill="#472A2B" d="M162.431,383.548c0,0,12.166,10.592,8.188,21.706c-1.957,5.466-4.511,7.345-6.723,7.767
						c-2.289,0.438-4.209-0.682-4.724-1.004c-1.685-1.055-2.984-6.255-0.153-11.884c2.832-5.63-4.426-10.67-4.426-10.67
						L162.431,383.548 M161.678,379.619c-0.587,0.112-1.155,0.355-1.659,0.736l-7.836,5.915c-1.019,0.768-1.6,1.982-1.58,3.257
						c0.019,1.275,0.652,2.471,1.692,3.208c0.044,0.031,4.343,3.229,3.151,5.599c-3.678,7.31-2.142,14.729,1.604,17.074
						c1.368,0.856,4.176,2.195,7.594,1.542c4.3-0.821,7.575-4.303,9.741-10.348c4.842-13.53-8.748-25.566-9.329-26.072
						C164.105,379.702,162.854,379.395,161.678,379.619L161.678,379.619z"/>
				</g>
			</g>
			<g>
				<g>
					<path fill="#B15C12" d="M98.983,420.29c-1.074,0.205-3.835,0.464-6.234-1.565c-2.558-2.166-3.79-6.158-3.661-11.865
						c0.319-14.233,10.419-20.954,10.849-21.233c0.22-0.144,0.461-0.239,0.713-0.287c0.368-0.07,0.754-0.037,1.111,0.105
						l11.564,4.577c0.688,0.271,1.169,0.9,1.253,1.634c0.083,0.734-0.245,1.455-0.854,1.873c-2.328,1.61-8.284,6.841-7.864,11.638
						c0.685,7.8-3.655,13.884-5.656,14.764c-0.329,0.144-0.762,0.272-1.218,0.359L98.983,420.29z"/>
					<path fill="#472A2B" d="M101.024,387.303l11.566,4.577c0,0-9.339,6.425-8.723,13.46s-3.333,12.259-4.469,12.759
						c-0.154,0.067-0.429,0.157-0.792,0.227c-2.242,0.429-7.778,0.064-7.521-11.423C91.386,393.564,101.024,387.303,101.024,387.303
						 M100.274,383.374c-0.501,0.096-0.987,0.288-1.428,0.575c-0.465,0.302-11.416,7.587-11.758,22.864
						c-0.143,6.343,1.327,10.863,4.368,13.437c2.151,1.822,5.033,2.552,7.901,2.004c0.612-0.116,1.18-0.287,1.647-0.491
						c3.268-1.436,7.557-8.682,6.846-16.772c-0.312-3.56,4.585-8.149,7.005-9.815c1.219-0.837,1.874-2.276,1.709-3.744
						c-0.167-1.469-1.129-2.725-2.504-3.27l-11.564-4.577C101.781,383.301,101.011,383.233,100.274,383.374L100.274,383.374z"/>
				</g>
				<g>
					<path fill="#B15C12" d="M112.967,422.146c-3.133,0.599-7.65-0.449-11.37-8.836c-6.739-15.187,5.459-25.152,5.581-25.251
						c0.259-0.207,0.56-0.342,0.872-0.401c0.372-0.071,0.763-0.036,1.125,0.109l10.846,4.376c0.64,0.258,1.101,0.828,1.222,1.505
						c0.12,0.679-0.116,1.37-0.628,1.834c-0.061,0.055-6.402,6.009-4.106,10.229c3.455,6.355,2.238,13.507-0.235,15.046
						c-0.568,0.359-1.722,1.086-3.304,1.389H112.967z"/>
					<path fill="#472A2B" d="M108.425,389.621l10.848,4.376c0,0-7.646,6.924-4.522,12.67c3.123,5.742,1.698,11.626,0.468,12.391
						c-0.36,0.224-1.318,0.874-2.625,1.123c-2.39,0.457-5.948-0.422-9.168-7.682C97.235,398.548,108.425,389.621,108.425,389.621
						 M107.675,385.692c-0.628,0.12-1.227,0.39-1.742,0.802c-4.707,3.753-12.051,14.358-6.166,27.627
						c4.478,10.093,10.427,10.591,13.577,9.989c1.955-0.374,3.384-1.275,3.919-1.614l0.066-0.04
						c3.574-2.222,4.788-10.612,0.935-17.701c-1.195-2.197,2.042-6.275,3.704-7.8c1.012-0.928,1.48-2.315,1.236-3.667
						c-0.246-1.351-1.161-2.486-2.435-2.999l-10.848-4.376C109.198,385.62,108.417,385.551,107.675,385.692L107.675,385.692z"/>
				</g>
				<g>
					<path fill="#B15C12" d="M126.126,422.272c-3.555,0.679-7.251-1.132-10.99-5.385c-8.599-9.777-0.994-24.801-0.666-25.437
						c0.291-0.561,0.815-0.934,1.402-1.045c0.294-0.057,0.604-0.048,0.906,0.035l9.467,2.61c0.617,0.17,1.115,0.628,1.342,1.229
						c0.224,0.6,0.146,1.272-0.208,1.806c-0.036,0.057-3.863,5.974-0.517,8.949c5.069,4.512,6.566,10.998,4.52,13.783
						C130.599,419.883,128.874,421.747,126.126,422.272L126.126,422.272z"/>
					<path fill="#472A2B" d="M116.248,392.37l9.464,2.61c0,0-4.887,7.36-0.181,11.55c4.709,4.188,5.418,9.502,4.238,11.104
						c-0.359,0.49-1.731,2.237-4.019,2.674c-2.212,0.423-5.28-0.381-9.114-4.741C108.841,406.702,116.248,392.37,116.248,392.37
						 M115.499,388.441c-1.176,0.225-2.227,0.972-2.806,2.093c-0.354,0.684-8.55,16.883,0.94,27.674
						c4.24,4.822,8.568,6.851,12.868,6.029c3.418-0.653,5.534-2.933,6.49-4.233c2.617-3.56,1.313-11.023-4.802-16.464
						c-1.98-1.763,0.835-6.319,0.864-6.364c0.694-1.069,0.844-2.414,0.391-3.606c-0.452-1.192-1.44-2.107-2.67-2.444l-9.465-2.61
						C116.704,388.346,116.084,388.329,115.499,388.441L115.499,388.441z"/>
				</g>
			</g>
		</g>
		<circle fill="#342209" cx="132.593" cy="136.305" r="8.95"/>
		<circle fill="#342209" cx="66.305" cy="148.969" r="8.951"/>
		<line fill="none" stroke="#47292B" stroke-width="6" stroke-miterlimit="10" x1="321.439" y1="0.835" x2="292.941" y2="99.157"/>
	</g>
</g>
</svg>
